<?xml version="1.0" encoding="UTF-8" standalone="no"?>
<svg
   width="50"
   height="50.806541"
   viewBox="0 0 500 508.06541"
   version="1.1"
   id="svg20995"
   sodipodi:docname="container.svg"
   inkscape:version="1.1.1 (c3084ef, 2021-09-22)"
   xmlns:inkscape="http://www.inkscape.org/namespaces/inkscape"
   xmlns:sodipodi="http://sodipodi.sourceforge.net/DTD/sodipodi-0.dtd"
   xmlns="http://www.w3.org/2000/svg"
   xmlns:svg="http://www.w3.org/2000/svg">
  <defs
     id="defs20999" />
  <sodipodi:namedview
     id="namedview20997"
     pagecolor="#ffffff"
     bordercolor="#666666"
     borderopacity="1.0"
     inkscape:pageshadow="2"
     inkscape:pageopacity="0.0"
     inkscape:pagecheckerboard="true"
     showgrid="false"
     fit-margin-top="0"
     fit-margin-left="0"
     fit-margin-right="0"
     fit-margin-bottom="0"
     inkscape:zoom="21.875"
     inkscape:cx="-0.61714286"
     inkscape:cy="2.7657143"
     inkscape:window-width="1280"
     inkscape:window-height="747"
     inkscape:window-x="0"
     inkscape:window-y="25"
     inkscape:window-maximized="0"
     inkscape:current-layer="svg20995" />
  <path
     fill-rule="evenodd"
     d="m 274.92178,6.6695327 a 48.887536,48.887536 0 0 1 49.30036,0 l 0.1521,0.0869 L 475.5345,99.664485 A 49.452459,49.452459 0 0 1 500,142.33786 v 163.3061 c 0,17.59951 -9.38641,33.89536 -24.61759,42.7603 l -0.043,0.022 -259.95133,152.89848 -0.087,0.065 a 49.452459,49.452459 0 0 1 -49.62628,0 l -0.5653,-0.326 L 23.81367,403.24522 A 49.278636,49.278636 0 0 1 7.9593876e-6,361.02812 V 196.91809 c 0,-8.51729 2.1727794406124,-16.7304 6.1706937406124,-23.90057 l 0.0652,-0.1304 0.30419,-0.5649 A 49.53937,49.53937 0 0 1 24.356883,154.35333 h 0.0435 L 274.92178,6.6478047 Z m 16.44794,28.1374933 h -0.022 L 46.693037,179.05784 182.44829,271.33578 a 16.860768,16.860768 0 0 0 16.46967,-0.2173 h 0.022 L 451.69911,123.2826 307.66557,34.76357 a 16.295845,16.295845 0 0 0 -16.29585,0.0652 z m 88.8884,167.999294 -70.61533,41.28281 v 164.00139 l 70.61533,-41.54354 z m 32.5917,-19.077 v 163.65374 l 46.14983,-27.15974 a 16.882496,16.882496 0 0 0 8.40866,-14.57935 V 151.83292 Z M 215.34417,299.23427 277.0511,263.16613 v 164.0883 L 206.80515,468.5807 V 303.18873 c 2.91152,-1.02121 5.75786,-2.32487 8.49556,-3.911 z M 174.21346,467.71159 V 303.21046 a 49.474187,49.474187 0 0 1 -8.53903,-3.911 l -0.4997,-0.3042 -132.582991,-90.10517 v 152.15975 c 0,5.97514 3.15053,11.47227 8.234834,14.42725 l 0.5432,0.3042 132.843737,91.95202 z"
     id="path20993"
     style="fill:#ffffff;stroke-width:21.7278" />
</svg>
