<?xml version="1.0" encoding="UTF-8" standalone="no"?>
<svg
   width="50"
   height="50"
   viewBox="0 0 500 500"
   version="1.1"
   id="svg22306"
   sodipodi:docname="image.svg"
   inkscape:version="1.1.1 (c3084ef, 2021-09-22)"
   xmlns:inkscape="http://www.inkscape.org/namespaces/inkscape"
   xmlns:sodipodi="http://sodipodi.sourceforge.net/DTD/sodipodi-0.dtd"
   xmlns="http://www.w3.org/2000/svg"
   xmlns:svg="http://www.w3.org/2000/svg">
  <defs
     id="defs22310" />
  <sodipodi:namedview
     id="namedview22308"
     pagecolor="#ffffff"
     bordercolor="#666666"
     borderopacity="1.0"
     inkscape:pageshadow="2"
     inkscape:pageopacity="0.0"
     inkscape:pagecheckerboard="true"
     showgrid="false"
     scale-x="0.9"
     fit-margin-top="0"
     fit-margin-left="0"
     fit-margin-right="0"
     fit-margin-bottom="0"
     inkscape:zoom="21.875"
     inkscape:cx="-1.9885714"
     inkscape:cy="11.68"
     inkscape:window-width="1280"
     inkscape:window-height="747"
     inkscape:window-x="0"
     inkscape:window-y="25"
     inkscape:window-maximized="0"
     inkscape:current-layer="svg22306" />
  <path
     fill-rule="evenodd"
     d="M 451.38889,41.666667 H 48.611111 a 6.9444444,6.9444444 0 0 0 -6.944444,6.944444 V 451.38889 c 0,3.83333 3.111111,6.94444 6.944444,6.94444 h 5.277778 L 326.75,185.47222 a 48.611111,48.611111 0 0 1 68.75,0 l 62.83333,62.83334 V 48.611111 a 6.9444444,6.9444444 0 0 0 -6.94444,-6.944444 z m 6.94444,265.555553 -92.30555,-92.30555 a 6.9444444,6.9444444 0 0 0 -9.83334,0 L 112.80556,458.33333 h 338.58333 a 6.9444444,6.9444444 0 0 0 6.94444,-6.94444 z M 48.611111,0 A 48.611111,48.611111 0 0 0 0,48.611111 V 451.38889 C 0,478.22222 21.777778,500 48.611111,500 H 451.38889 A 48.611111,48.611111 0 0 0 500,451.38889 V 48.611111 A 48.611111,48.611111 0 0 0 451.38889,0 Z M 152.77778,180.55556 a 27.77778,27.77778 0 1 0 0,-55.55556 27.77778,27.77778 0 0 0 0,55.55556 z m 0,41.66666 a 69.444444,69.444444 0 1 0 0,-138.888887 69.444444,69.444444 0 0 0 0,138.888887 z"
     id="path22304"
     style="fill:#ffffff;stroke-width:27.7778" />
</svg>
