<?xml version="1.0" encoding="UTF-8" standalone="no"?>
<svg
   viewBox="0 0 22.83895492553711 22.837730407714844"
   version="1.1"
   id="svg23824"
   sodipodi:docname="bb_repo.svg"
   inkscape:version="1.1.1 (c3084ef, 2021-09-22)"
   xmlns:inkscape="http://www.inkscape.org/namespaces/inkscape"
   xmlns:sodipodi="http://sodipodi.sourceforge.net/DTD/sodipodi-0.dtd"
   xmlns="http://www.w3.org/2000/svg"
   xmlns:svg="http://www.w3.org/2000/svg">
  <defs
     id="defs23828" />
  <sodipodi:namedview
     id="namedview23826"
     pagecolor="#ffffff"
     bordercolor="#666666"
     borderopacity="1.0"
     inkscape:pageshadow="2"
     inkscape:pageopacity="0.0"
     inkscape:pagecheckerboard="true"
     showgrid="false"
     inkscape:zoom="22.988274"
     inkscape:cx="-1.587766"
     inkscape:cy="11.418865"
     inkscape:window-width="1280"
     inkscape:window-height="747"
     inkscape:window-x="0"
     inkscape:window-y="25"
     inkscape:window-maximized="0"
     inkscape:current-layer="svg23824" />
  <path
     d="M22.271 10.415L12.423.567a1.453 1.453 0 0 0-2.054 0L8.324 2.612l2.594 2.594a1.725 1.725 0 0 1 2.185 2.199l2.5 2.5a1.728 1.728 0 1 1-1.035.974l-2.332-2.332v6.136a1.73 1.73 0 1 1-1.421-.05V8.44a1.729 1.729 0 0 1-.938-2.266L7.32 3.616.567 10.368a1.454 1.454 0 0 0 0 2.055l9.849 9.848a1.453 1.453 0 0 0 2.054 0l9.802-9.802a1.454 1.454 0 0 0 0-2.055z"
     id="path23822"
     style="fill:#ffffff" />
</svg>
